<svg xmlns="http://www.w3.org/2000/svg" viewBox="0 0 100 100"><style>.tile{fill:#0B0C0E}.mark{fill:#FAFAF8}@media (prefers-color-scheme:dark){.tile{fill:#FAFAF8}.mark{fill:#0B0C0E}}</style><rect class="tile" width="100" height="100" rx="20"/><path class="mark" d="M21.92 68.846V31.154000000000003H36.230000000000004Q41.738 31.154000000000003 44.653999999999996 34.286Q47.57 37.418000000000006 47.57 42.818000000000005Q47.57 48.218 44.653999999999996 51.35000000000001Q41.738 54.482000000000006 36.230000000000004 54.482000000000006H28.994V68.846ZM28.994 48.70400000000001H34.772000000000006Q37.634 48.70400000000001 38.876000000000005 47.543000000000006Q40.118 46.382000000000005 40.118 43.84400000000001V41.792Q40.118 39.254000000000005 38.876000000000005 38.093Q37.634 36.932 34.772000000000006 36.932H28.994ZM67.172 69.494Q59.774 69.494 56.237 64.418Q52.7 59.342000000000006 52.7 50.0Q52.7 40.712 56.237 35.60900000000001Q59.774 30.506000000000007 67.172 30.506000000000007Q69.98 30.506000000000007 72.113 31.262000000000004Q74.246 32.018 75.812 33.341Q77.378 34.664 78.404 36.527Q79.43 38.39 80.024 40.604L73.544 42.440000000000005Q73.166 41.144000000000005 72.68 40.010000000000005Q72.194 38.876000000000005 71.465 38.039Q70.736 37.202000000000005 69.656 36.74300000000001Q68.576 36.284000000000006 67.064 36.284000000000006Q63.391999999999996 36.284000000000006 61.799 39.092000000000006Q60.206 41.900000000000006 60.206 46.760000000000005V53.24Q60.206 58.1 61.799 60.908Q63.391999999999996 63.716 67.064 63.716Q68.576 63.716 69.656 63.257000000000005Q70.736 62.798 71.465 61.961Q72.194 61.124 72.68 59.99Q73.166 58.856 73.544 57.56L80.024 59.396Q79.43 61.61000000000001 78.404 63.473Q77.378 65.336 75.812 66.65899999999999Q74.246 67.982 72.113 68.738Q69.98 69.494 67.172 69.494Z"/></svg>
